<svg width="298" height="411" viewBox="0 0 298 411" fill="none" xmlns="http://www.w3.org/2000/svg">
<rect x="30" width="261" height="411" rx="130.5" fill="#FF6C63" fill-opacity="0.75"/>
<path d="M189.901 247.179V299.007H59.446C44.5824 299.007 32.4893 287.381 32.4893 273.093C32.4893 258.804 44.5824 247.179 59.446 247.179H189.901Z" fill="#F2F2F2"/>
<path d="M193.105 298.608C193.105 299.137 192.894 299.643 192.518 300.017C192.143 300.391 191.633 300.601 191.102 300.601H57.1223C49.8456 300.601 42.867 297.724 37.7216 292.603C32.5762 287.481 29.6855 280.535 29.6855 273.292C29.6855 266.049 32.5762 259.103 37.7216 253.981C42.867 248.86 49.8456 245.983 57.1223 245.983H191.102C191.633 245.983 192.143 246.193 192.518 246.567C192.894 246.94 193.105 247.447 193.105 247.976C193.105 248.505 192.894 249.012 192.518 249.386C192.143 249.76 191.633 249.97 191.102 249.97H57.1223C50.9079 249.97 44.9481 252.427 40.5538 256.801C36.1596 261.174 33.6909 267.107 33.6909 273.292C33.6909 279.478 36.1596 285.41 40.5538 289.784C44.9481 294.157 50.9079 296.615 57.1223 296.615H191.102C191.633 296.615 192.143 296.825 192.518 297.199C192.894 297.572 193.105 298.079 193.105 298.608Z" fill="#6C63FF"/>
<path d="M189.901 259.139H49.7124C49.6062 259.139 49.5043 259.097 49.4292 259.022C49.3541 258.948 49.3119 258.846 49.3119 258.74C49.3119 258.635 49.3541 258.533 49.4292 258.459C49.5043 258.384 49.6062 258.342 49.7124 258.342H189.901C190.007 258.342 190.109 258.384 190.184 258.459C190.259 258.533 190.301 258.635 190.301 258.74C190.301 258.846 190.259 258.948 190.184 259.022C190.109 259.097 190.007 259.139 189.901 259.139Z" fill="#CCCCCC"/>
<path d="M189.901 268.707H49.7124C49.6062 268.707 49.5043 268.665 49.4292 268.59C49.3541 268.516 49.3119 268.414 49.3119 268.309C49.3119 268.203 49.3541 268.101 49.4292 268.027C49.5043 267.952 49.6062 267.91 49.7124 267.91H189.901C190.007 267.91 190.109 267.952 190.184 268.027C190.259 268.101 190.301 268.203 190.301 268.309C190.301 268.414 190.259 268.516 190.184 268.59C190.109 268.665 190.007 268.707 189.901 268.707Z" fill="#CCCCCC"/>
<path d="M189.901 278.276H49.7124C49.6062 278.276 49.5043 278.233 49.4292 278.159C49.3541 278.084 49.3119 277.983 49.3119 277.877C49.3119 277.771 49.3541 277.67 49.4292 277.595C49.5043 277.52 49.6062 277.478 49.7124 277.478H189.901C190.007 277.478 190.109 277.52 190.184 277.595C190.259 277.67 190.301 277.771 190.301 277.877C190.301 277.983 190.259 278.084 190.184 278.159C190.109 278.233 190.007 278.276 189.901 278.276Z" fill="#CCCCCC"/>
<path d="M189.901 287.844H49.7124C49.6062 287.844 49.5043 287.802 49.4292 287.727C49.3541 287.652 49.3119 287.551 49.3119 287.445C49.3119 287.339 49.3541 287.238 49.4292 287.163C49.5043 287.088 49.6062 287.046 49.7124 287.046H189.901C190.007 287.046 190.109 287.088 190.184 287.163C190.259 287.238 190.301 287.339 190.301 287.445C190.301 287.551 190.259 287.652 190.184 287.727C190.109 287.802 190.007 287.844 189.901 287.844Z" fill="#CCCCCC"/>
<path d="M290.723 256.935L258.053 297.292L156.471 215.823C144.897 206.54 142.808 189.936 151.815 178.809C160.822 167.683 177.566 166.183 189.14 175.465L290.723 256.935Z" fill="#F2F2F2"/>
<path d="M260.8 298.983C260.466 299.394 259.982 299.657 259.454 299.714C258.926 299.77 258.397 299.616 257.984 299.284L153.656 215.613C147.99 211.069 144.369 204.47 143.591 197.269C142.813 190.068 144.94 182.854 149.506 177.214C154.072 171.574 160.701 167.97 167.936 167.196C175.171 166.421 182.419 168.539 188.085 173.083L292.412 256.754C292.617 256.918 292.788 257.121 292.914 257.351C293.04 257.58 293.12 257.833 293.148 258.093C293.176 258.353 293.153 258.617 293.078 258.868C293.004 259.119 292.881 259.354 292.716 259.557C292.551 259.761 292.347 259.931 292.116 260.056C291.886 260.182 291.632 260.261 291.37 260.289C291.109 260.317 290.844 260.293 290.592 260.219C290.339 260.145 290.104 260.023 289.899 259.858L185.572 176.187C183.176 174.264 180.423 172.83 177.47 171.966C174.517 171.102 171.422 170.826 168.362 171.153C165.302 171.48 162.336 172.404 159.635 173.872C156.933 175.34 154.549 177.324 152.618 179.709C150.687 182.095 149.247 184.836 148.38 187.775C147.513 190.715 147.237 193.796 147.567 196.841C147.897 199.887 148.826 202.839 150.302 205.527C151.778 208.215 153.772 210.588 156.169 212.509L260.497 296.18C260.91 296.512 261.174 296.993 261.231 297.519C261.288 298.044 261.133 298.571 260.8 298.983Z" fill="#CCCCCC"/>
<path d="M283.184 266.248L174.022 178.7C173.981 178.667 173.947 178.627 173.922 178.581C173.896 178.535 173.881 178.484 173.875 178.432C173.869 178.38 173.874 178.327 173.889 178.277C173.904 178.227 173.928 178.18 173.961 178.139C173.994 178.099 174.035 178.065 174.081 178.04C174.127 178.015 174.178 177.999 174.23 177.993C174.283 177.988 174.336 177.992 174.386 178.007C174.437 178.022 174.484 178.046 174.525 178.079L283.686 265.627C283.727 265.66 283.761 265.7 283.787 265.746C283.812 265.792 283.828 265.843 283.834 265.895C283.839 265.947 283.835 266 283.82 266.05C283.805 266.1 283.78 266.147 283.747 266.188C283.714 266.229 283.673 266.263 283.627 266.288C283.581 266.313 283.53 266.329 283.478 266.334C283.426 266.34 283.373 266.335 283.322 266.32C283.272 266.305 283.225 266.281 283.184 266.248V266.248Z" fill="#CCCCCC"/>
<path d="M277.152 273.699L167.991 186.151C167.908 186.084 167.855 185.988 167.844 185.883C167.833 185.778 167.864 185.673 167.93 185.59C167.997 185.508 168.094 185.455 168.199 185.444C168.305 185.433 168.41 185.464 168.493 185.53L277.655 273.078C277.696 273.111 277.73 273.151 277.755 273.197C277.781 273.243 277.797 273.293 277.802 273.346C277.808 273.398 277.803 273.45 277.788 273.501C277.774 273.551 277.749 273.598 277.716 273.639C277.683 273.679 277.642 273.713 277.596 273.738C277.55 273.764 277.499 273.779 277.447 273.785C277.394 273.79 277.341 273.786 277.291 273.771C277.24 273.756 277.193 273.732 277.152 273.699Z" fill="#CCCCCC"/>
<path d="M271.121 281.149L161.959 193.601C161.877 193.535 161.824 193.438 161.812 193.333C161.801 193.228 161.832 193.123 161.899 193.041C161.965 192.958 162.062 192.906 162.168 192.894C162.273 192.883 162.379 192.914 162.462 192.98L271.624 280.528C271.665 280.561 271.699 280.602 271.724 280.648C271.749 280.694 271.765 280.744 271.771 280.796C271.776 280.848 271.771 280.901 271.757 280.951C271.742 281.001 271.717 281.048 271.684 281.089C271.651 281.13 271.61 281.164 271.564 281.189C271.518 281.214 271.467 281.23 271.415 281.235C271.363 281.241 271.31 281.236 271.259 281.221C271.209 281.207 271.162 281.182 271.121 281.149V281.149Z" fill="#CCCCCC"/>
<path d="M265.09 288.6L155.928 201.052C155.887 201.019 155.853 200.978 155.828 200.932C155.802 200.886 155.787 200.836 155.781 200.784C155.775 200.732 155.78 200.679 155.795 200.629C155.81 200.579 155.834 200.532 155.867 200.491C155.9 200.45 155.941 200.416 155.987 200.391C156.033 200.366 156.084 200.35 156.136 200.345C156.189 200.339 156.242 200.344 156.292 200.359C156.343 200.373 156.39 200.398 156.431 200.431L265.592 287.979C265.633 288.012 265.667 288.052 265.693 288.098C265.718 288.144 265.734 288.195 265.74 288.247C265.745 288.299 265.741 288.352 265.726 288.402C265.711 288.452 265.686 288.499 265.653 288.54C265.62 288.581 265.579 288.614 265.533 288.64C265.487 288.665 265.436 288.68 265.384 288.686C265.332 288.692 265.279 288.687 265.228 288.672C265.178 288.657 265.131 288.633 265.09 288.6Z" fill="#CCCCCC"/>
<path d="M253.718 300H44.2823C44.2074 300 44.1356 300.053 44.0827 300.146C44.0297 300.24 44 300.367 44 300.5C44 300.633 44.0297 300.76 44.0827 300.854C44.1356 300.947 44.2074 301 44.2823 301H253.718C253.793 301 253.864 300.947 253.917 300.854C253.97 300.76 254 300.633 254 300.5C254 300.367 253.97 300.24 253.917 300.146C253.864 300.053 253.793 300 253.718 300Z" fill="#CCCCCC"/>
<path d="M135.414 241.731L130.835 241.731L128.657 224.151L135.416 224.152L135.414 241.731Z" fill="#FFB8B8"/>
<path d="M127.564 240.429H136.395V245.963H122.004C122.004 245.236 122.148 244.517 122.427 243.845C122.707 243.174 123.116 242.564 123.633 242.05C124.149 241.536 124.762 241.128 125.436 240.85C126.111 240.572 126.834 240.429 127.564 240.429Z" fill="#2F2E41"/>
<path d="M88.6334 241.731L84.0544 241.731L81.8767 224.151L88.635 224.152L88.6334 241.731Z" fill="#FFB8B8"/>
<path d="M80.7836 240.429H89.6146V245.963H75.2234C75.2234 245.236 75.3672 244.517 75.6466 243.845C75.926 243.174 76.3356 242.564 76.8519 242.05C77.3682 241.536 77.9812 241.128 78.6558 240.85C79.3304 240.572 80.0534 240.429 80.7836 240.429Z" fill="#2F2E41"/>
<path d="M103.928 111.329V109.336C103.928 105.926 105.289 102.655 107.711 100.244C110.134 97.833 113.419 96.4784 116.845 96.4784H116.845C120.271 96.4784 123.557 97.833 125.979 100.244C128.402 102.655 129.763 105.926 129.763 109.336V111.329C129.763 113.787 128.781 116.145 127.035 117.883C125.289 119.622 122.92 120.598 120.45 120.598H113.24C112.017 120.598 110.806 120.359 109.677 119.893C108.547 119.427 107.52 118.744 106.655 117.883C105.791 117.023 105.105 116.001 104.637 114.876C104.169 113.752 103.928 112.546 103.928 111.329Z" fill="#2F2E41"/>
<path d="M116.845 121.284C122.278 121.284 126.683 116.9 126.683 111.492C126.683 106.084 122.278 101.7 116.845 101.7C111.412 101.7 107.008 106.084 107.008 111.492C107.008 116.9 111.412 121.284 116.845 121.284Z" fill="#FFB8B8"/>
<path d="M63.3348 145.146C63.7341 144.77 64.2111 144.487 64.7323 144.315C65.2535 144.143 65.8063 144.087 66.3516 144.151C66.8969 144.215 67.4216 144.397 67.8886 144.684C68.3556 144.972 68.7536 145.357 69.0546 145.814L77.4878 144.227L79.7071 149.092L67.7662 151.168C66.9612 151.621 66.0175 151.763 65.1138 151.569C64.2101 151.375 63.4093 150.858 62.8631 150.116C62.3169 149.374 62.0632 148.458 62.1501 147.542C62.2371 146.626 62.6586 145.773 63.3348 145.146V145.146Z" fill="#FFB8B8"/>
<path d="M109.176 127.451L109.286 127.617L95.457 136.685L72.1223 144.101C71.813 144.2 71.5477 144.403 71.3715 144.675C71.1954 144.946 71.1193 145.27 71.1562 145.592L71.6653 149.956C71.6879 150.149 71.7507 150.335 71.8499 150.503C71.949 150.67 72.0823 150.816 72.241 150.929C72.3998 151.042 72.5806 151.121 72.7719 151.161C72.9631 151.201 73.1606 151.2 73.3516 151.159L95.313 146.474C96.3758 146.248 97.3808 145.808 98.2656 145.18L113.802 134.178C114.365 133.777 114.814 133.237 115.106 132.612C115.398 131.987 115.522 131.298 115.467 130.611C115.41 129.922 115.174 129.261 114.783 128.691C114.391 128.122 113.857 127.663 113.233 127.361C112.61 127.059 111.918 126.924 111.225 126.969C110.533 127.014 109.865 127.237 109.286 127.617L109.176 127.451Z" fill="#CCCCCC"/>
<path d="M130.917 236.743C130.566 236.743 130.222 236.641 129.927 236.45C129.633 236.258 129.401 235.986 129.26 235.666L108.268 184.037C108.219 183.925 108.136 183.83 108.032 183.766C107.927 183.702 107.806 183.672 107.683 183.679C107.56 183.686 107.443 183.73 107.346 183.805C107.25 183.88 107.179 183.983 107.143 184.1L90.0163 234.362C89.944 234.596 89.8244 234.813 89.6648 234.999C89.5053 235.185 89.3091 235.337 89.0885 235.445C88.8678 235.553 88.6273 235.615 88.3817 235.627C88.1362 235.639 87.8907 235.601 87.6605 235.515L81.9174 233.371C81.6057 233.256 81.3322 233.057 81.1274 232.796C80.9225 232.535 80.7943 232.223 80.7571 231.894C78.1734 209.492 100.704 152.945 100.932 152.376L100.995 152.219L121.533 156.741L121.576 156.787C129.77 165.685 136.505 221.804 137.772 232.964C137.82 233.367 137.728 233.774 137.511 234.118C137.295 234.462 136.967 234.722 136.582 234.856L131.513 236.641C131.322 236.708 131.12 236.743 130.917 236.743Z" fill="#2F2E41"/>
<path d="M113.221 158.561C108.245 158.561 102.697 157.574 100.989 153.498L100.95 153.404L101.003 153.317C102.351 151.116 104.133 147.361 103.175 146.656C101.289 145.268 100.374 142.984 100.455 139.868C100.631 133.105 105.261 127.099 111.977 124.925H111.977C113.851 124.328 115.759 123.839 117.69 123.461C119.097 123.178 120.551 123.209 121.945 123.552C123.339 123.895 124.64 124.541 125.753 125.443C126.881 126.352 127.793 127.497 128.423 128.798C129.053 130.099 129.385 131.522 129.397 132.966C129.467 140.195 128.349 150.262 122.623 157.174C122.354 157.495 121.981 157.711 121.568 157.784C118.813 158.28 116.021 158.54 113.221 158.561Z" fill="#CCCCCC"/>
<path d="M111.37 158.29C111.641 157.324 112.284 156.502 113.16 156.005C114.036 155.507 115.073 155.374 116.048 155.634C116.246 155.689 116.44 155.76 116.627 155.847L123.031 150.047L127.484 153.033L118.327 161.099C117.913 161.841 117.263 162.424 116.478 162.755C115.693 163.087 114.819 163.147 113.996 162.928C113.516 162.797 113.067 162.573 112.675 162.268C112.283 161.964 111.955 161.585 111.711 161.154C111.467 160.723 111.311 160.248 111.253 159.756C111.194 159.265 111.234 158.767 111.37 158.29Z" fill="#FFB8B8"/>
<path d="M122.016 158.364C121.601 158.364 121.198 158.221 120.877 157.959L118.352 155.906C118.141 155.734 117.972 155.518 117.858 155.273C117.743 155.027 117.686 154.759 117.69 154.489C117.694 154.218 117.76 153.952 117.882 153.71C118.004 153.469 118.18 153.257 118.395 153.093L128.986 145.008C129.112 144.911 129.194 144.77 129.215 144.613C129.237 144.457 129.195 144.299 129.1 144.173L122.563 135.571C121.803 134.575 121.422 133.343 121.487 132.095C121.553 130.846 122.059 129.66 122.918 128.748C123.823 127.775 125.062 127.177 126.389 127.071C127.716 126.966 129.035 127.36 130.083 128.177L130.124 128.221L136.95 137.949C137.688 138.525 138.283 139.264 138.687 140.106C139.091 140.949 139.294 141.873 139.28 142.806C139.266 143.74 139.036 144.657 138.606 145.487C138.177 146.318 137.561 147.038 136.806 147.592L123.089 158.012C122.779 158.241 122.403 158.364 122.016 158.364Z" fill="#CCCCCC"/>
<path d="M108.131 108.738V103.879L116.845 100.092L125.154 103.879V108.738C125.154 108.949 125.07 109.152 124.919 109.301C124.769 109.451 124.565 109.535 124.353 109.535H108.932C108.72 109.535 108.516 109.451 108.366 109.301C108.216 109.152 108.131 108.949 108.131 108.738Z" fill="#2F2E41"/>
<path d="M116.445 97.1229C115.164 93.041 117.855 88.3631 121.833 86.7474C125.811 85.1317 130.57 86.2611 133.926 88.9305C137.283 91.5998 139.366 95.5981 140.469 99.731C141.573 103.864 141.782 108.174 141.986 112.445C146.873 113.339 150.198 119.109 148.505 123.759C146.812 128.409 140.545 130.719 136.217 128.289C131.889 125.858 130.636 119.325 133.759 115.478C135.237 113.658 136.063 111.399 136.105 109.059C136.148 106.719 135.405 104.432 133.994 102.559C132.583 100.687 130.585 99.3371 128.316 98.7228C126.047 98.1086 123.637 98.2654 121.468 99.1683C119.059 100.171 116.037 97.5659 116.445 97.1229Z" fill="#2F2E41"/>
<path d="M61.5283 126.299C55.6767 126.261 49.8982 125.001 44.5662 122.602C44.2488 122.461 43.9794 122.231 43.7908 121.941C43.6023 121.65 43.5026 121.311 43.5041 120.965V106.446C43.5046 105.971 43.6947 105.515 44.0326 105.178C44.3705 104.842 44.8286 104.653 45.3065 104.652H77.75C78.2279 104.653 78.6861 104.842 79.024 105.178C79.3619 105.515 79.5519 105.971 79.5525 106.446V120.965C79.5539 121.311 79.4543 121.65 79.2657 121.941C79.0771 122.231 78.8077 122.461 78.4903 122.602C73.1583 125.001 67.3799 126.261 61.5283 126.299Z" fill="#6C63FF"/>
<path d="M61.5238 114.537C61.2833 114.537 61.0451 114.49 60.8234 114.397L35.0961 103.593C34.7643 103.454 34.4821 103.219 34.2858 102.918C34.0894 102.618 33.988 102.266 33.9946 101.907C34.0012 101.549 34.1155 101.201 34.3228 100.908C34.53 100.615 34.8207 100.39 35.1574 100.263L60.8851 90.548C61.2994 90.3908 61.7576 90.3918 62.1713 90.5508L87.5542 100.266C87.889 100.394 88.1777 100.618 88.3835 100.911C88.5893 101.203 88.7027 101.55 88.7094 101.907C88.716 102.264 88.6155 102.615 88.4207 102.914C88.2259 103.214 87.9457 103.449 87.6159 103.59L62.2327 114.393C62.0086 114.488 61.7674 114.537 61.5238 114.537Z" fill="#6C63FF"/>
<path d="M46.5081 123.589C47.8353 123.589 48.9113 122.519 48.9113 121.197C48.9113 119.876 47.8353 118.805 46.5081 118.805C45.1808 118.805 44.1049 119.876 44.1049 121.197C44.1049 122.519 45.1808 123.589 46.5081 123.589Z" fill="#3F3D56"/>
<path opacity="0.2" d="M87.7036 102.056L62.3203 112.86C62.1224 112.944 61.9095 112.988 61.6943 112.988C61.4791 112.989 61.266 112.946 61.0677 112.863L35.3404 102.059C35.0173 101.927 34.7477 101.691 34.5743 101.389C34.4608 101.585 34.3906 101.803 34.3681 102.027C34.3456 102.252 34.3714 102.479 34.4439 102.694C34.5163 102.908 34.6337 103.104 34.7883 103.27C34.9429 103.435 35.131 103.566 35.3404 103.654L61.0677 114.458C61.266 114.541 61.4791 114.584 61.6943 114.583C61.9095 114.583 62.1224 114.539 62.3203 114.455L87.7036 103.651C87.9119 103.562 88.0989 103.431 88.2524 103.265C88.4059 103.1 88.5223 102.904 88.594 102.69C88.6657 102.476 88.6911 102.25 88.6684 102.025C88.6457 101.801 88.5755 101.584 88.4624 101.389C88.2903 101.689 88.0235 101.923 87.7036 102.056Z" fill="black"/>
<path d="M46.71 121.188C46.8162 121.188 46.9181 121.146 46.9932 121.071C47.0684 120.997 47.1106 120.895 47.1106 120.789V107.449L60.3208 102.659C60.427 102.661 60.5295 102.62 60.6057 102.546C60.682 102.473 60.7257 102.372 60.7273 102.266C60.7289 102.161 60.6882 102.058 60.6142 101.983C60.5402 101.907 60.4389 101.863 60.3327 101.862L47.1225 106.652C47.0162 106.649 46.9105 106.668 46.8118 106.708C46.7131 106.747 46.6235 106.806 46.5484 106.881C46.4725 106.955 46.4122 107.043 46.3712 107.141C46.3301 107.239 46.3092 107.343 46.3095 107.449V120.789C46.3095 120.895 46.3517 120.996 46.4268 121.071C46.5019 121.146 46.6038 121.188 46.71 121.188Z" fill="#3F3D56"/>
</svg>
